<svg xmlns="http://www.w3.org/2000/svg" width="417.98" height="57.78" viewBox="0 0 417.98 57.78"><title stroke="none" fill="#000000" stroke-width="1px">logo-grandpoitiers</title><path d="M21.16,14.11h8.58c.87,0,1.64.07,1.73,1.16.23,3,0,6.15,0,9.18V38.58c0,4,.06,8-1.87,11.6-2.59,4.85-7.84,7-13.08,7.48a34.46,34.46,0,0,1-8-.27c-1.15-.17-2-.35-1.94-1.66,0-1,.09-2,.14-3l.16-3.46c0-.67-.1-1.84.71-2.08s1.81.31,2.51.41a17.94,17.94,0,0,0,2.92.22,8.73,8.73,0,0,0,4.67-1.2c.59-.39,3-2.88,1.9-3.55-.47-.29-1.43.61-1.87.81a9,9,0,0,1-3,.75A15.4,15.4,0,0,1,6.4,43.23c-3.3-1.71-5.14-5-5.87-8.51a23,23,0,0,1,.91-13,13,13,0,0,1,7.12-7.24c3.22-1.26,7.59-1.38,10.36,1,.5.42,1,1.12,1.08.07C20.05,14.74,20.25,14.11,21.16,14.11ZM20,29.6c0-2.73-.77-6.19-4.15-6.16s-4.27,4-4.2,6.69,1.16,5.74,4.32,5.75C19.48,35.9,20,32.41,20,29.6Z" fill="#961454" stroke="none" stroke-width="1px"></path><path d="M56.42,14.35c1.21.67.31,3.27.14,4.32l-.91,5.55c-.09.55-.11,1.23-.76,1.39a9.39,9.39,0,0,1-2.22-.19,7.76,7.76,0,0,0-2.62.36A4.19,4.19,0,0,0,47,30c0,3.61,0,7.23,0,10.85,0,1.24.08,2.5,0,3.73-.1,1.61-1.85,1.25-3,1.25h-6c-1.1,0-2.34.17-2.41-1.29-.12-2.5,0-5,0-7.55,0-7.1-.06-14.19,0-21.28,0-.15,0-.3,0-.44.08-1,.72-1.15,1.54-1.16,1.83,0,3.65,0,5.47,0h2.68c.57,0,1.24-.08,1.61.47s.12.92.17,1.37c.1.95.47.46.94,0a7.21,7.21,0,0,1,3.89-2.1A7.3,7.3,0,0,1,56.42,14.35Z" fill="#961454" stroke="none" stroke-width="1px"></path><path d="M88.08,24.17v9.65c0,3.56.19,7.17,0,10.73-.1,1.71-2.12,1.28-3.36,1.28H78.34c-.87,0-1.64-.08-1.73-1.16a5.77,5.77,0,0,0,0-1.1c-.28-.89-.9.31-1.28.68-2.37,2.32-6.41,2.34-9.48,1.87-2.76-.43-5.48-1.69-6.9-4.22a10.08,10.08,0,0,1-.49-8.07c2-5.4,8.28-6.12,13.26-6.12h3.39c.82,0,1.47.17,1.5-.85A3,3,0,0,0,75,23.8a4.41,4.41,0,0,0-4.83.77,1.89,1.89,0,0,1-2,.81L65.39,25l-5.86-.76c-1.31-.18-1.32-.88-1-2a9.08,9.08,0,0,1,1.95-3.74A14.61,14.61,0,0,1,68.74,14c6.24-1.24,15,.2,18.33,6.33A8,8,0,0,1,88.08,24.17ZM76.61,34.54c0-.65,0-1-.69-1.1s-1.44,0-2.14,0c-1.45,0-3.59,0-4.22,1.61-.85,2.19,1.23,3.48,3.15,3.31C74.84,38.18,76.61,36.79,76.61,34.54Z" fill="#961454" stroke="none" stroke-width="1px"></path><path d="M121.93,25V43.69c0,.69.15,1.64-.57,2s-2.16.13-3,.13h-4.84c-.75,0-2.43.28-2.92-.47-.34-.51-.18-1.56-.18-2.13v-9c0-2.21,0-4.43,0-6.64,0-1.81-.84-3.74-2.81-4.09-2.24-.39-3.85,1.36-4.05,3.47s0,4.16,0,6.2v9.37c0,.7.05,1.42,0,2.11-.1,1.31-1.22,1.19-2.2,1.19-2.67,0-5.4.18-8.06,0-1.68-.12-1.21-2.5-1.21-3.7V16.52c0-.41,0-.84,0-1.25.1-1.35,1.34-1.16,2.34-1.16,2.62,0,5.32-.19,7.93,0,.88.06,1.17.52,1.2,1.34,0,.28-.18,1.9.31,1.82.27,0,.87-1.1,1.1-1.33a6.68,6.68,0,0,1,1.3-1.07,8.1,8.1,0,0,1,3.31-1.16,10.71,10.71,0,0,1,10.72,4.85A12.7,12.7,0,0,1,121.93,25Z" fill="#961454" stroke="none" stroke-width="1px"></path><path d="M145.84,3.13h8.58c.87,0,1.65.09,1.73,1.16.18,2.21,0,4.51,0,6.72V43.49c0,1,.19,2.23-1.16,2.34-1.8.14-3.66,0-5.46,0h-3.07c-.9,0-1.7-.07-1.78-1.2a4.68,4.68,0,0,0,0-1.24c-.19-.48-.25-.38-.62,0s-.59.68-.93,1a8.12,8.12,0,0,1-4.75,1.93A12,12,0,0,1,129,43c-3-2.88-4.29-6.92-4.59-11-.33-4.25.2-8.83,2.55-12.49a12.62,12.62,0,0,1,8.2-5.66,12.07,12.07,0,0,1,5.76.21,7,7,0,0,1,2,1c.35.26,1.34,1.56,1.69,1.15s0-1.36,0-1.66V4.79C144.68,4,144.8,3.13,145.84,3.13ZM144.68,30c0-2.57-.66-6.35-3.86-6.58-3.36-.24-4.33,3.37-4.42,6.05s.51,6.74,3.84,7S144.68,32.75,144.68,30Z" fill="#961454" stroke="none" stroke-width="1px"></path><path d="M192.32,30.09c0,4.1-.9,8.35-3.54,11.59a12.47,12.47,0,0,1-9.2,4.62,9.51,9.51,0,0,1-5.37-1.11,5.8,5.8,0,0,1-1-.73c-.23-.2-.51-.69-.78-.78-.46-.15-.4.16-.44.5A51.72,51.72,0,0,0,172,50c0,1.84.12,3.73,0,5.56-.06.93-.58,1.21-1.42,1.23s-1.9,0-2.85,0c-2,0-4,.13-6,0-1.31-.09-1.23-1.09-1.23-2.06V17.52c0-.73,0-1.49,0-2.22.13-1.74,2.86-1.19,4.08-1.19,2,0,4.11-.13,6.14,0,1.39.08,1.2,1.11,1.25,2.16,0,.88.39.56.86,0a7.38,7.38,0,0,1,2-1.62c3-1.68,7.08-1.27,10,.31a13.83,13.83,0,0,1,6.5,8.28A23.84,23.84,0,0,1,192.32,30.09Zm-12-.18c0-2.75-.94-6.72-4.45-6.46-3.3.25-3.93,4.37-3.84,7s1,6.06,4.14,6.07C179.55,36.5,180.31,32.58,180.31,29.91Z" fill="#171e29" stroke="none" stroke-width="1px"></path><path d="M194.88,34.79c-1.89-6.76.25-15.06,6.42-18.87,5.44-3.36,13.42-3.15,18.52.79,5.68,4.38,7,12.71,4.89,19.27a14.94,14.94,0,0,1-14,10.32,16.17,16.17,0,0,1-10.25-2.91A15.17,15.17,0,0,1,194.88,34.79Zm19-2.2c.57-2.62.6-7.33-2.24-8.78a3.84,3.84,0,0,0-3.59.13,5,5,0,0,0-2,3.42c-.56,2.6-.51,7,2.09,8.64C210.88,37.71,213.3,35.17,213.85,32.59Z" fill="#171e29" stroke="none" stroke-width="1px"></path><path d="M228.61,6.42A6.18,6.18,0,0,1,232.87.35a7.15,7.15,0,0,1,7.5,1.85A7,7,0,0,1,241,9.79c-1.39,2.48-4.41,3.37-7.1,2.93A6.21,6.21,0,0,1,228.61,6.42Zm.86,38.25V18.05c0-.85,0-1.69,0-2.53,0-1.11.67-1.41,1.68-1.41h5.14a25.72,25.72,0,0,1,3.62,0c1.12.16,1,1.14,1,2V44c0,.89-.05,1.73-1.2,1.81-2.91.2-5.94.06-8.85,0C230.13,45.81,229.47,45.57,229.47,44.67Z" fill="#171e29" stroke="none" stroke-width="1px"></path><path d="M265,23.26h-2.81c-.66,0-2.1-.31-2.31.49a8.79,8.79,0,0,0,0,2.05v3.83c0,1.56-.48,4.67.87,5.77.84.69,2.15.37,3.15.42s1.35.69,1.35,1.67c0,2.19,0,4.37,0,6.56a2.68,2.68,0,0,1-.07.8c-.38,1-2.09.75-2.93.79a36.1,36.1,0,0,1-5.79-.09c-2.59-.28-5.33-1.09-6.63-3.56a12.16,12.16,0,0,1-.93-5.79V29.06a39.53,39.53,0,0,0,0-5.22c-.25-1.76-4.32.74-4.52-1.75-.16-2,0-4,0-6,0-.93,0-1.85,1.18-1.94a24,24,0,0,0,2.81,0c.76-.16.53-1.1.53-1.72V8.63a7.43,7.43,0,0,1,.07-2.4c.34-.83,1.39-.66,2.12-.66h7c.89,0,1.73,0,1.82,1.16.06.75,0,1.52,0,2.27v3.69c0,.68-.17,1.31.65,1.42a29.49,29.49,0,0,0,3.39,0c1,0,2.14-.15,2.24,1.16.16,2,0,4,0,6C266.19,22.12,266.27,23.26,265,23.26Z" fill="#171e29" stroke="none" stroke-width="1px"></path><path d="M268.93,6.42A6.17,6.17,0,0,1,273.2.35a7.13,7.13,0,0,1,7.49,1.85,7,7,0,0,1,.59,7.59c-1.39,2.48-4.41,3.37-7.1,2.93A6.21,6.21,0,0,1,268.93,6.42Zm.86,38.25V18.05c0-.85,0-1.69,0-2.53,0-1.11.67-1.41,1.68-1.41h5.14a25.72,25.72,0,0,1,3.62,0c1.12.16,1,1.14,1,2V44c0,.89-.05,1.73-1.2,1.81-2.91.2-5.93.06-8.85,0C270.45,45.81,269.79,45.57,269.79,44.67Z" fill="#171e29" stroke="none" stroke-width="1px"></path><path d="M308.52,34.91c1.33-1.06,2.39,1.22,3,2.12.87,1.21,1.83,2.39,2.63,3.65s-.08,1.76-1,2.45a14.61,14.61,0,0,1-3.93,2.06,22.3,22.3,0,0,1-9.18,1c-5.39-.45-10.48-3.12-13-8.07-2.66-5.23-2.67-12.32.44-17.37,5.34-8.66,18.87-9.79,25-1.44a20.39,20.39,0,0,1,3.1,6.62,30.6,30.6,0,0,1,.85,4.24c.14,1.1.44,2.51-1,2.62-2.39.19-4.87,0-7.26,0h-9.79a7.69,7.69,0,0,0-1,0c-.9.14-.38,1.11,0,1.66,1.42,2.39,4.93,2.35,7.31,1.94A8.17,8.17,0,0,0,308.52,34.91Zm-11.28-9c-.37.72-.14,1,.55,1s1.15,0,1.73,0c1.4,0,2.8,0,4.2,0,.57,0,.91-.1.69-.8a4,4,0,0,0-1.83-2.27A3.81,3.81,0,0,0,297.24,25.88Z" fill="#171e29" stroke="none" stroke-width="1px"></path><path d="M340.61,14.35c1.21.67.32,3.27.14,4.32l-.9,5.55c-.09.55-.12,1.23-.76,1.39a9.35,9.35,0,0,1-2.22-.19,7.78,7.78,0,0,0-2.63.36A4.2,4.2,0,0,0,331.15,30c0,3.61,0,7.23,0,10.85,0,1.24.08,2.5,0,3.73-.1,1.61-1.85,1.25-3,1.25h-6c-1.09,0-2.34.17-2.41-1.29-.11-2.5,0-5,0-7.55,0-7.1-.06-14.19,0-21.28,0-.15,0-.3,0-.44.08-1,.72-1.15,1.55-1.16,1.82,0,3.64,0,5.47,0h2.67c.57,0,1.24-.08,1.61.47s.13.92.17,1.37c.1.95.47.46,1,0a7.15,7.15,0,0,1,3.88-2.1A7.3,7.3,0,0,1,340.61,14.35Z" fill="#171e29" stroke="none" stroke-width="1px"></path><path d="M342.5,36.5c0-1.06.51-1.45,1.48-1.47h2.73c1.85,0,3.72-.05,5.57,0,.36,0,1-.05,1.2.31.07.1,0,.52,0,.65a1.77,1.77,0,0,0,.52.93c1.12,1.1,3.34,1.18,4.77.82.95-.24,2.1-1.15,1.2-2.13-.74-.8-2.32-.89-3.31-1-3.5-.55-7.18-1-10.16-3.11A8.74,8.74,0,0,1,343,22.9c.88-6.59,7.67-9.21,13.57-9.28s12.86,2.26,14.28,8.71a7.76,7.76,0,0,1,.24,2.09c-.06.74-.45.88-1.17.91s-1.32,0-2,0c-2,0-4,0-6.08,0a3.46,3.46,0,0,1-.91,0c-.72-.2-.44-.52-.6-1.12-.44-1.59-2.58-1.79-3.93-1.67-1,.1-3.14.75-2.41,2.21.5,1,2.23,1.16,3.18,1.32,3.66.61,7.53.89,10.75,2.92a8.27,8.27,0,0,1,3.88,7.56c-.21,6.52-6.34,9.26-12.06,9.72S346,45.84,343.28,40A8.16,8.16,0,0,1,342.5,36.5Z" fill="#171e29" stroke="none" stroke-width="1px"></path><path d="M376.19,41.91c0-3.67,6-3.52,5.82.14S376.19,45.45,376.19,41.91Z" fill="#8d99ae" stroke="none" stroke-width="1px"></path><path d="M393.67,19.92c0,.23-.12.88.06,1.06s.46.06.61.07c.92,0,1.85,0,2.78,0a11.55,11.55,0,0,1,1.86,0c.85.15.71,1.65.61,2.34-.13.85-.76.71-1.44.71h-2.93c-.43,0-1.34-.19-1.55.24-.08.15,0,.54,0,.71V41.11a21.89,21.89,0,0,1,0,3c-.11.76-.63.69-1.27.69s-1.87.27-2-.62a16,16,0,0,1,0-2.59V25.3a3.15,3.15,0,0,0,0-.92c-.2-.46-1-.28-1.43-.28s-2,.27-2.34-.35a4.63,4.63,0,0,1,0-2.22c.25-.76,1.63-.48,2.27-.48s1.47.26,1.52-.6c.13-2.1-.09-4.34,1.14-6.19s3.57-2.25,5.64-2.32c.68,0,2.25-.3,2.5.47a3.65,3.65,0,0,1-.14,2.27c-.47.47-2.28.17-2.88.28a3.19,3.19,0,0,0-2.36,1.51A7,7,0,0,0,393.67,19.92Z" fill="#8d99ae" stroke="none" stroke-width="1px"></path><path d="M417.64,21.38c.61.26.24,1.12.14,1.59s-.12,1.31-.47,1.56-.92-.07-1.28-.13a7.67,7.67,0,0,0-1.59-.06,5.92,5.92,0,0,0-2.69.73c-2.51,1.41-2.95,4-2.95,6.65V43.11c0,.63.21,1.57-.61,1.72s-2.57.28-2.72-.62a7,7,0,0,1,0-1.21V22.16a2.67,2.67,0,0,1,0-.49c.12-.73.69-.62,1.28-.62s1.52-.21,1.89.16.16,1.35.16,1.77-.16,1.58.24,1.4.71-1,.95-1.32a7.33,7.33,0,0,1,1.18-1A6.49,6.49,0,0,1,417.64,21.38Z" fill="#8d99ae" stroke="none" stroke-width="1px"></path></svg>