<?xml version="1.0" encoding="utf-8"?>
<!-- Generator: Adobe Illustrator 23.0.4, SVG Export Plug-In . SVG Version: 6.00 Build 0)  -->
<svg version="1.1" id="LOGO" xmlns="http://www.w3.org/2000/svg" xmlns:xlink="http://www.w3.org/1999/xlink" x="0px" y="0px"
	 viewBox="0 0 1137.9 729" style="enable-background:new 0 0 1137.9 729;" xml:space="preserve">
<style type="text/css">
	.st0{fill:#039F4E;}
	.st1{fill:#552E17;}
</style>
<polygon class="st0" points="722.6,322.5 866.4,322.5 978.2,0 834.9,0 "/>
<polygon class="st0" points="320.7,322.5 325.3,322.5 437.6,0 432.6,0 "/>
<polygon class="st0" points="383.6,322.5 395.5,322.5 507.5,0 495.7,0 "/>
<polygon class="st0" points="438.6,322.5 479.9,322.5 592.2,0 550.2,0 "/>
<polygon class="st0" points="512.7,322.5 586.5,322.5 698.3,0 624.9,0 "/>
<polygon class="st0" points="606.5,322.5 712.3,322.5 824.3,0 718.5,0 "/>
<polygon class="st1" points="244,543.9 179.3,729 184,729 248.5,543.9 "/>
<polygon class="st1" points="307,543.9 242.7,729 254.6,729 318.9,543.9 "/>
<polygon class="st1" points="361.7,543.9 297.2,729 339.2,729 403.7,543.9 "/>
<polygon class="st1" points="435.4,543.9 370.8,729 445,729 509.5,543.9 "/>
<polygon class="st1" points="529.6,543.9 465.1,729 571.6,729 636.1,543.9 "/>
<g>
	<g>
		<path class="st1" d="M638.6,597"/>
		<polygon class="st1" points="726.2,729.2 581.9,729.1 646.6,543.4 790.8,543.4 		"/>
	</g>
</g>
<g>
	<path class="st1" d="M61,344.5h36.3c18.3,0.2,30.2,7.5,26,31.3c-4.2,23.8-23.1,37.7-41.9,37.7H56.7l-13.7,38.6H23.1L61,344.5z
		 M63.3,395.2h20.3c10,0,17.4-6,19.7-18.8c1.9-10.8-4.7-13.4-11.7-13.4h-17L63.3,395.2z"/>
	<path class="st1" d="M144.5,344.5h69.2l-6.9,19.9h-49.3l-8.1,23.1h45.6l-6.5,18.4h-45.6l-9.3,26.4h50l-7.1,19.9h-70L144.5,344.5z"
		/>
	<path class="st1" d="M241,364.4h-28.4l7.1-19.9h75.7l-7.1,19.9h-27.2l-31,87.7h-20.1L241,364.4z"/>
	<path class="st1" d="M304.1,344.5h20.1L286,452.1h-20.1L304.1,344.5z"/>
	<path class="st1" d="M353.4,364.4H325l7.1-19.9h75.7l-7.1,19.9h-27.2l-31,87.7h-20.1L353.4,364.4z"/>
	<path class="st1" d="M450.4,344.5h64.5l-7.2,19.9h-44.4l-8.8,24.9h38.9l-6.5,18.4H448l-15.8,44.4h-19.9L450.4,344.5z"/>
	<path class="st1" d="M560.3,342c24.5,0,37.4,16,32.1,46.1c-6.2,35.4-29.5,66.6-61.3,66.6c-25.4,0-37.2-17.3-31.9-47.6
		C505.4,372.3,529.7,342,560.3,342z M534.9,434.8c19.6,0,33.7-24.7,37.3-45.1c2.7-15.1-0.7-27.9-15.3-27.9
		c-20.4,0-34,24.6-37.7,45.2C516.6,421.8,520.4,434.8,534.9,434.8z"/>
	<path class="st1" d="M621.6,344.5h43.3c16.4-0.3,25.7,7.4,22.1,28.2c-2.6,14.6-13.4,26.8-25.9,28.9l-0.1,0.3c7,2.7,7.5,10.5,6,19
		c-0.9,4.8-2.8,12.1-3.9,18.7c-0.9,4.8-1.4,9.3-0.9,12.5h-19.4c-0.1-2.6,0-4.8,0.4-7.2c1.3-7.2,3.6-14.6,4.9-21.8
		c1.8-10.4-2.9-13-10.8-13h-18.8l-14.9,42h-19.9L621.6,344.5z M624.4,393.2h18.4c10.6-0.1,21.4-5,23.6-17c2-11.6-4.5-13.3-12.4-13.3
		h-18.9L624.4,393.2z"/>
	<path class="st1" d="M711.9,344.5h69.2l-6.9,19.9h-49.3l-8.1,23.1h45.6l-6.5,18.4h-45.6l-9.3,26.4h50l-7.1,19.9h-70L711.9,344.5z"
		/>
	<path class="st1" d="M783.5,416.4c-3.3,15.2,4.6,19.9,16,19.9c8,0,18.1-4.5,20-15.2c1.9-10.5-9.5-12.7-20-16.7
		c-10.7-4.2-21-10.4-17.8-28.9c4.2-24,24.3-33.4,41.8-33.4c18.5,0,32.3,9.8,27.9,34.7h-18.9c2.5-12.1-4.1-16.3-13.4-16.3
		c-7.6,0-16.5,3.5-18.2,13.4c-1.9,10.7,13,13.4,18.9,15.2c13.5,4.4,22.3,10.8,18.9,30.1c-4.5,25.8-26,35.6-43.2,35.6
		c-25,0-35.5-12.4-31-38.3H783.5z"/>
	<path class="st1" d="M889.3,364.4h-28.4l7.1-19.9h75.7l-7.1,19.9h-27.2l-31,87.7h-20.1L889.3,364.4z"/>
	<path class="st1" d="M952.4,344.5h20.1l-38.1,107.6h-20.1L952.4,344.5z"/>
	<path class="st1" d="M988.4,344.5h69.2l-6.9,19.9h-49.3l-8.1,23.1h45.6l-6.5,18.4h-45.6l-9.3,26.4h50l-7.1,19.9h-70L988.4,344.5z"
		/>
	<path class="st1" d="M1071.7,344.5h43.3c16.4-0.3,25.7,7.4,22.1,28.2c-2.6,14.6-13.4,26.8-25.9,28.9l-0.1,0.3c7,2.7,7.5,10.5,6,19
		c-0.9,4.8-2.8,12.1-3.9,18.7c-0.9,4.8-1.4,9.3-0.9,12.5h-19.4c-0.1-2.6,0-4.8,0.4-7.2c1.3-7.2,3.6-14.6,4.9-21.8
		c1.8-10.4-2.9-13-10.8-13h-18.8l-14.9,42h-19.9L1071.7,344.5z M1074.6,393.2h18.4c10.6-0.1,21.4-5,23.6-17
		c2-11.6-4.5-13.3-12.4-13.3h-18.9L1074.6,393.2z"/>
</g>
<g>
	<g>
		<path class="st0" d="M32.1,464.9l-16.9,48.5h25l-3.9,11H0l20.7-59.5H32.1z"/>
	</g>
	<g>
		<path class="st0" d="M81.6,506.5c0,0.2-0.1,0.4-0.1,0.7l-0.2,1.1c-0.4,2.5-0.1,4.5,1,6.1c1.1,1.6,3,2.3,5.8,2.3
			c1,0,1.9-0.2,2.8-0.5c0.9-0.4,1.6-0.8,2.3-1.4c0.7-0.6,1.3-1.2,1.9-1.9c0.6-0.7,1.1-1.4,1.6-2.1h10.3c-1.2,2.4-2.5,4.6-4,6.4
			c-1.4,1.8-3,3.4-4.7,4.6c-1.8,1.2-3.7,2.2-5.9,2.8c-2.2,0.6-4.6,0.9-7.3,0.9c-2.5,0-4.7-0.4-6.6-1.2c-1.9-0.8-3.5-2-4.7-3.5
			c-1.2-1.6-2-3.5-2.4-5.9c-0.4-2.3-0.4-5.1,0.2-8.2c0.6-3.4,1.6-6.8,3.1-10c1.5-3.2,3.3-6,5.5-8.5c2.2-2.5,4.7-4.4,7.5-5.9
			c2.8-1.5,5.8-2.2,9-2.2c2.6,0,4.9,0.4,6.9,1.2c2,0.8,3.7,2,4.9,3.5c1.3,1.6,2.1,3.6,2.6,5.9c0.5,2.4,0.4,5.1-0.1,8.2
			c-0.4,2.1-0.9,4.4-1.7,6.8H81.8C81.7,506.1,81.7,506.3,81.6,506.5z M101.6,495c0-1.1-0.2-2.1-0.5-3c-0.3-0.9-0.9-1.6-1.7-2.1
			c-0.8-0.5-2-0.8-3.5-0.8c-1.4,0-2.8,0.3-4,0.8c-1.2,0.5-2.3,1.2-3.2,2c-1,0.8-1.8,1.8-2.5,2.9c-0.7,1.1-1.4,2.3-2,3.5h17.1
			C101.5,497.2,101.6,496.1,101.6,495z"/>
	</g>
	<g>
		<path class="st0" d="M214.3,464.9l-16.9,48.5h25l-3.9,11h-36.3l20.7-59.5H214.3z"/>
	</g>
	<g>
		<path class="st0" d="M257.1,496.7c1.5-3.3,3.4-6.1,5.7-8.5c2.3-2.4,4.8-4.4,7.7-5.8c2.9-1.4,6-2.1,9.3-2.1c2.6,0,4.8,0.4,6.9,1.1
			c2,0.8,3.7,1.9,5,3.4c1.3,1.5,2.2,3.4,2.6,5.7c0.5,2.3,0.4,5-0.1,8.1c-0.6,3.8-1.7,7.3-3.2,10.6c-1.5,3.3-3.4,6.2-5.7,8.6
			c-2.3,2.4-4.9,4.4-7.8,5.8c-2.9,1.4-6.1,2.1-9.5,2.1c-5.2,0-9.1-1.5-11.7-4.6c-2.6-3.1-3.4-7.7-2.4-13.9
			C254.5,503.4,255.5,499.9,257.1,496.7z M264,510.7c0.1,1.2,0.4,2.2,0.9,3.1c0.5,0.9,1.1,1.6,2,2.1c0.8,0.5,1.8,0.8,3.1,0.8
			c1.9,0,3.7-0.6,5.3-1.8c1.6-1.2,3-2.7,4.1-4.5c1.2-1.8,2.2-3.8,3-5.9c0.8-2.1,1.3-4.1,1.6-5.9c0.5-2.9,0.3-5.2-0.6-6.9
			c-0.8-1.7-2.6-2.6-5.4-2.6c-1.9,0-3.6,0.6-5.2,1.8c-1.6,1.2-2.9,2.7-4.1,4.5c-1.2,1.8-2.1,3.7-2.9,5.8c-0.8,2.1-1.3,4-1.6,5.9
			C263.9,508.3,263.9,509.5,264,510.7z"/>
	</g>
	<g>
		<path class="st0" d="M344.2,524.5l2.2-6h-0.1c-4.1,4.7-8.9,7.1-14.3,7.1c-7.3,0-10.3-3.8-9-11.5c0.1-0.4,0.2-1,0.4-1.7
			c0.2-0.7,0.4-1.4,0.6-2.1c0.2-0.7,0.5-1.4,0.7-2c0.2-0.6,0.4-1.2,0.6-1.5l8.8-25.3h10.3l-8.7,25.3c-0.2,0.3-0.3,0.7-0.5,1.2
			c-0.2,0.5-0.3,1-0.5,1.5c-0.2,0.5-0.3,1-0.4,1.5c-0.1,0.5-0.2,0.8-0.2,1.1c-0.2,1.3,0.1,2.3,1,3.2c0.9,0.8,2,1.2,3.2,1.2
			c1.5,0,3-0.3,4.3-1c1.3-0.7,2.5-1.6,3.5-2.7c1-1.1,1.9-2.4,2.7-3.8c0.8-1.4,1.5-2.9,2-4.4l8-22.9H369l-15,43.1H344.2z"/>
	</g>
	<g>
		<path class="st0" d="M403.6,506.5c0,0.2-0.1,0.4-0.1,0.7l-0.2,1.1c-0.4,2.5-0.1,4.5,1,6.1c1.1,1.6,3,2.3,5.8,2.3
			c1,0,1.9-0.2,2.8-0.5c0.9-0.4,1.6-0.8,2.3-1.4c0.7-0.6,1.3-1.2,1.9-1.9c0.6-0.7,1.1-1.4,1.6-2.1h10.3c-1.2,2.4-2.5,4.6-4,6.4
			c-1.4,1.8-3,3.4-4.7,4.6c-1.8,1.2-3.7,2.2-5.9,2.8c-2.2,0.6-4.6,0.9-7.3,0.9c-2.5,0-4.7-0.4-6.6-1.2c-1.9-0.8-3.5-2-4.7-3.5
			c-1.2-1.6-2-3.5-2.4-5.9c-0.4-2.3-0.4-5.1,0.2-8.2c0.6-3.4,1.6-6.8,3.1-10c1.5-3.2,3.3-6,5.5-8.5c2.2-2.5,4.7-4.4,7.5-5.9
			c2.8-1.5,5.8-2.2,9-2.2c2.6,0,4.9,0.4,6.9,1.2c2,0.8,3.7,2,4.9,3.5c1.3,1.6,2.1,3.6,2.6,5.9c0.5,2.4,0.4,5.1-0.1,8.2
			c-0.4,2.1-0.9,4.4-1.7,6.8h-27.6C403.7,506.1,403.6,506.3,403.6,506.5z M423.5,495c0-1.1-0.2-2.1-0.5-3c-0.3-0.9-0.9-1.6-1.7-2.1
			c-0.8-0.5-2-0.8-3.5-0.8c-1.4,0-2.8,0.3-4,0.8c-1.2,0.5-2.3,1.2-3.2,2c-1,0.8-1.8,1.8-2.5,2.9c-0.7,1.1-1.4,2.3-2,3.5h17.1
			C423.4,497.2,423.5,496.1,423.5,495z"/>
	</g>
	<g>
		<path class="st0" d="M482.7,524.5l2.2-6h-0.1c-4.1,4.7-8.9,7.1-14.3,7.1c-7.3,0-10.3-3.8-9-11.5c0.1-0.4,0.2-1,0.4-1.7
			c0.2-0.7,0.4-1.4,0.6-2.1c0.2-0.7,0.5-1.4,0.7-2c0.2-0.6,0.4-1.2,0.6-1.5l8.8-25.3h10.3l-8.7,25.3c-0.2,0.3-0.3,0.7-0.5,1.2
			c-0.2,0.5-0.3,1-0.5,1.5c-0.2,0.5-0.3,1-0.4,1.5c-0.1,0.5-0.2,0.8-0.2,1.1c-0.2,1.3,0.1,2.3,1,3.2c0.9,0.8,2,1.2,3.2,1.2
			c1.5,0,3-0.3,4.3-1c1.3-0.7,2.5-1.6,3.5-2.7c1-1.1,1.9-2.4,2.7-3.8c0.8-1.4,1.5-2.9,2-4.4l8-22.9h10.3l-15,43.1H482.7z"/>
	</g>
	<g>
		<path class="st0" d="M552.3,481.4l-2.8,7.8l0.1,0.2c1.7-3,3.8-5.3,6.4-6.8c2.6-1.5,5.3-2.3,8-2.3c1.1,0,2.1,0.1,3.1,0.2l-4,11.5
			c-0.7-0.2-1.4-0.3-2.1-0.5c-0.7-0.2-1.4-0.3-2.1-0.3c-2,0-3.7,0.4-5.2,1.2c-1.5,0.8-2.8,1.8-4,3.2c-1.2,1.3-2.2,2.8-3,4.5
			c-0.8,1.7-1.6,3.5-2.2,5.3l-6.6,19.1h-10.2l14.9-43.1H552.3z"/>
	</g>
	<g>
		<path class="st0" d="M656.5,519c-1.5,2.3-3.4,4-5.6,5c-2.2,1-4.4,1.5-6.7,1.5c-4.5,0-7.8-1.5-9.8-4.5c-2-3-2.5-7.2-1.7-12.4
			c0.6-3.6,1.6-7,3-10.4c1.4-3.4,3.1-6.4,5.3-9.1c2.1-2.7,4.6-4.8,7.4-6.5c2.8-1.6,6-2.5,9.5-2.5c2.2,0,4.2,0.6,6,1.7
			c1.8,1.1,2.9,2.9,3.4,5.3h0.1l7.8-22.2h10.3l-20.8,59.5h-9.9l1.9-5.3L656.5,519z M652.1,490.9c-1.6,1.2-3,2.6-4.2,4.4
			c-1.2,1.8-2.2,3.7-3,5.8c-0.8,2.1-1.3,4.1-1.6,6c-0.2,1.3-0.3,2.5-0.1,3.7c0.1,1.2,0.4,2.2,0.9,3c0.5,0.9,1.1,1.6,1.9,2.1
			c0.8,0.5,1.8,0.8,3.1,0.8c1.9,0,3.7-0.6,5.3-1.8c1.6-1.2,3-2.7,4.3-4.5c1.2-1.8,2.3-3.8,3.1-6c0.8-2.1,1.4-4.1,1.7-6
			c0.5-2.8,0.2-5.1-0.7-6.8c-0.9-1.7-2.6-2.5-5.1-2.5C655.5,489.1,653.7,489.7,652.1,490.9z"/>
	</g>
	<g>
		<path class="st0" d="M713.5,506.5c0,0.2-0.1,0.4-0.1,0.7l-0.2,1.1c-0.4,2.5-0.1,4.5,1,6.1c1.1,1.6,3,2.3,5.8,2.3
			c1,0,1.9-0.2,2.8-0.5c0.9-0.4,1.6-0.8,2.3-1.4c0.7-0.6,1.3-1.2,1.9-1.9c0.6-0.7,1.1-1.4,1.6-2.1h10.3c-1.2,2.4-2.5,4.6-4,6.4
			c-1.4,1.8-3,3.4-4.7,4.6c-1.8,1.2-3.7,2.2-5.9,2.8c-2.2,0.6-4.6,0.9-7.3,0.9c-2.5,0-4.7-0.4-6.6-1.2c-1.9-0.8-3.5-2-4.7-3.5
			c-1.2-1.6-2-3.5-2.4-5.9c-0.4-2.3-0.4-5.1,0.2-8.2c0.6-3.4,1.6-6.8,3.1-10c1.5-3.2,3.3-6,5.5-8.5c2.2-2.5,4.7-4.4,7.5-5.9
			c2.8-1.5,5.8-2.2,9-2.2c2.6,0,4.9,0.4,6.9,1.2c2,0.8,3.7,2,4.9,3.5c1.3,1.6,2.1,3.6,2.6,5.9c0.5,2.4,0.4,5.1-0.1,8.2
			c-0.3,2.1-0.9,4.4-1.7,6.8h-27.6C713.6,506.1,713.5,506.3,713.5,506.5z M733.4,495c0-1.1-0.2-2.1-0.5-3c-0.3-0.9-0.9-1.6-1.7-2.1
			c-0.8-0.5-2-0.8-3.5-0.8c-1.4,0-2.8,0.3-4,0.8c-1.2,0.5-2.3,1.2-3.2,2c-1,0.8-1.8,1.8-2.5,2.9c-0.7,1.1-1.4,2.3-2,3.5h17.1
			C733.3,497.2,733.4,496.1,733.4,495z"/>
	</g>
	<g>
		<path class="st0" d="M871.5,464.9l-3.9,11h-25.3l-4.8,13.8h22.1l-3.6,10.2h-22.1l-8.6,24.6H814l20.7-59.5H871.5z"/>
	</g>
	<g>
		<path class="st0" d="M907.3,481.4l-2.8,7.8l0.1,0.2c1.7-3,3.8-5.3,6.4-6.8c2.6-1.5,5.3-2.3,8-2.3c1.1,0,2.1,0.1,3.1,0.2l-4,11.5
			c-0.7-0.2-1.4-0.3-2.1-0.5c-0.7-0.2-1.4-0.3-2.1-0.3c-2,0-3.7,0.4-5.2,1.2c-1.5,0.8-2.8,1.8-4,3.2c-1.2,1.3-2.2,2.8-3,4.5
			c-0.8,1.7-1.6,3.5-2.2,5.3l-6.6,19.1h-10.2l14.9-43.1H907.3z"/>
	</g>
	<g>
		<path class="st0" d="M943.5,496.7c1.5-3.3,3.4-6.1,5.7-8.5c2.3-2.4,4.8-4.4,7.7-5.8c2.9-1.4,6-2.1,9.3-2.1c2.6,0,4.8,0.4,6.9,1.1
			c2,0.8,3.7,1.9,5,3.4c1.3,1.5,2.2,3.4,2.6,5.7c0.5,2.3,0.4,5-0.1,8.1c-0.6,3.8-1.7,7.3-3.2,10.6c-1.5,3.3-3.4,6.2-5.7,8.6
			c-2.3,2.4-4.9,4.4-7.8,5.8c-2.9,1.4-6.1,2.1-9.5,2.1c-5.2,0-9.1-1.5-11.7-4.6c-2.6-3.1-3.4-7.7-2.4-13.9
			C940.9,503.4,941.9,499.9,943.5,496.7z M950.4,510.7c0.1,1.2,0.4,2.2,0.9,3.1c0.5,0.9,1.1,1.6,2,2.1c0.8,0.5,1.8,0.8,3.1,0.8
			c1.9,0,3.7-0.6,5.3-1.8c1.6-1.2,3-2.7,4.1-4.5c1.2-1.8,2.2-3.8,3-5.9c0.8-2.1,1.3-4.1,1.6-5.9c0.5-2.9,0.3-5.2-0.6-6.9
			c-0.8-1.7-2.6-2.6-5.4-2.6c-1.9,0-3.6,0.6-5.2,1.8c-1.6,1.2-2.9,2.7-4.1,4.5c-1.2,1.8-2.1,3.7-2.9,5.8c-0.8,2.1-1.3,4-1.6,5.9
			C950.3,508.3,950.3,509.5,950.4,510.7z"/>
	</g>
	<g>
		<path class="st0" d="M1030.5,481.4l-15.1,43.1h-10.3l15-43.1H1030.5z M1022.4,474.7l3.5-9.8h10.3l-3.5,9.8H1022.4z"/>
	</g>
	<g>
		<path class="st0" d="M1078.1,519c-1.5,2.3-3.4,4-5.6,5c-2.2,1-4.4,1.5-6.7,1.5c-4.5,0-7.8-1.5-9.8-4.5c-2-3-2.5-7.2-1.7-12.4
			c0.6-3.6,1.6-7,3-10.4c1.4-3.4,3.1-6.4,5.3-9.1c2.1-2.7,4.6-4.8,7.4-6.5c2.8-1.6,6-2.5,9.5-2.5c2.2,0,4.2,0.6,6,1.7
			c1.8,1.1,2.9,2.9,3.4,5.3h0.1l7.8-22.2h10.3l-20.8,59.5h-9.9l1.9-5.3L1078.1,519z M1073.7,490.9c-1.6,1.2-3,2.6-4.2,4.4
			c-1.2,1.8-2.2,3.7-3,5.8c-0.8,2.1-1.3,4.1-1.6,6c-0.2,1.3-0.3,2.5-0.1,3.7c0.1,1.2,0.4,2.2,0.9,3c0.5,0.9,1.1,1.6,1.9,2.1
			c0.8,0.5,1.8,0.8,3.1,0.8c1.9,0,3.7-0.6,5.3-1.8c1.6-1.2,3-2.7,4.3-4.5c1.2-1.8,2.3-3.8,3.1-6c0.8-2.1,1.4-4.1,1.7-6
			c0.5-2.8,0.2-5.1-0.7-6.8c-0.9-1.7-2.6-2.5-5.1-2.5C1077.1,489.1,1075.3,489.7,1073.7,490.9z"/>
	</g>
</g>
</svg>
