<svg height="48" width="220" xmlns="http://www.w3.org/2000/svg"><g fill="none" fill-rule="evenodd"><path d="M59.422 20.445c-.28.455-.7.56-1.118.315-1.362-.84-2.585-1.26-3.913-1.26-1.64 0-2.549 1.294-2.549 2.519v1.05c0 .244.14.384.384.384h4.856c.488 0 .768.28.768.77v1.609c0 .49-.28.768-.768.768h-4.856c-.244 0-.384.141-.384.387v14.847c0 .49-.279.77-.768.77h-2.2c-.49 0-.769-.28-.769-.77V26.987c0-.246-.14-.387-.384-.387h-.628c-.49 0-.77-.278-.77-.768v-1.61c0-.489.28-.769.77-.769h.628c.244 0 .384-.14.384-.384v-1.05c0-3.114 2.515-5.842 6.286-5.842 2.376 0 4.541.945 5.624 1.82.35.279.455.699.21 1.119zm14.493 19.17h-1.361c-.279 0-.49-.105-.63-.315-.174-.245-.349-.21-.488-.14-.909.49-1.817.805-3.039.805-3.772 0-6.286-2.728-6.286-5.843v-9.9c0-.49.28-.769.767-.769h2.2c.49 0 .77.28.77.77v9.9c0 1.223.908 2.518 2.55 2.518 1.641 0 2.55-1.295 2.55-2.519v-9.9c0-.49.278-.769.767-.769h2.2c.49 0 .769.28.769.77v14.622c0 .49-.279.77-.769.77zm12.365.35c-3.773 0-6.287-2.729-6.287-5.842v-7.137c0-.245-.14-.385-.384-.385h-.629c-.489 0-.769-.28-.769-.77v-1.608c0-.49.28-.77.77-.77h.628c.245 0 .384-.14.384-.385v-3.463c0-.49.28-.77.768-.77h2.2c.49 0 .769.28.769.77v3.463c0 .245.14.385.385.385h3.701c.49 0 .77.28.77.77v1.609c0 .49-.28.77-.77.77h-3.701c-.245 0-.385.139-.385.384v7.137c0 1.223.908 2.518 2.55 2.518.873 0 1.502-.42 2.096-1.05.419-.454.838-.454 1.292-.14l1.467 1.015c.384.28.314.84.07 1.154-1.119 1.435-2.794 2.344-4.925 2.344zm19.908-.35h-1.362c-.28 0-.49-.105-.63-.315-.174-.245-.348-.21-.487-.14-.91.49-1.818.805-3.04.805-3.772 0-6.287-2.728-6.287-5.843v-9.9c0-.49.28-.769.769-.769h2.2c.49 0 .769.28.769.77v9.9c0 1.223.908 2.518 2.55 2.518 1.641 0 2.549-1.295 2.549-2.519v-9.9c0-.49.28-.769.768-.769h2.2c.49 0 .77.28.77.77v14.622c0 .49-.28.77-.77.77zm16.625-12.244c-.279.455-.699.56-1.118.314-1.362-.839-2.584-1.258-3.91-1.258-1.644 0-2.551 1.294-2.551 2.518v9.9c0 .49-.28.77-.769.77h-2.2c-.49 0-.768-.28-.768-.77v-9.9c0-3.113 2.514-5.841 6.287-5.841 2.374 0 4.54.943 5.623 1.819.349.28.454.699.21 1.12zm10.129 12.593c-3.773 0-6.287-2.728-6.287-5.842v-5.177c0-3.113 2.514-5.842 6.287-5.842 3.771 0 6.286 2.729 6.286 5.842v5.177c0 3.114-2.515 5.842-6.286 5.842zm16.135 0c-3.072 0-5.168-1.889-6.216-3.568-.244-.384-.174-.804.208-1.084l1.398-.945c.385-.244.768-.14 1.013.21.7.944 2.095 2.064 3.597 2.064 1.817 0 2.55-1.085 2.55-2.099 0-1.819-2.585-1.749-2.585-1.749-3.772-.21-5.868-2.099-5.868-4.862 0-2.309 1.922-4.827 5.903-4.827 1.921 0 3.842.839 5.03 2.308.28.315.28.77-.106 1.05l-1.5 1.084c-.35.244-.768.175-1.083-.105-.77-.735-1.643-1.05-2.34-1.05-1.713 0-2.27.98-2.27 1.54 0 1.574 2.305 1.574 2.305 1.574 3.353.14 6.25 1.644 6.25 5.037 0 3.043-2.304 5.422-6.286 5.422zm16.486 0c-3.773 0-6.287-2.728-6.287-5.841v-5.178c0-3.113 2.514-5.841 6.287-5.841 3.109 0 5.065 1.784 5.727 3.497.105.246.21.77-.208 1.05l-1.643 1.084c-.384.245-.802.21-1.048-.174-.662-1.12-1.292-2.134-2.828-2.134-1.642 0-2.55 1.294-2.55 2.518v5.178c0 1.223.908 2.518 2.55 2.518 1.536 0 2.166-1.014 2.828-2.134.246-.384.664-.42 1.048-.175l1.643 1.085c.418.28.313.804.208 1.049-.662 1.715-2.618 3.498-5.727 3.498zm15.786 0c-3.772 0-6.286-2.728-6.286-5.842v-5.177c0-3.113 2.514-5.842 6.286-5.842s6.287 2.729 6.287 5.842v5.177c0 3.114-2.515 5.842-6.287 5.842zm16.136 0c-.908 0-1.5-.14-2.095-.314-.279-.07-.453 0-.453.314v5.808c0 .49-.28.768-.77.768h-2.2c-.488 0-.768-.279-.768-.768V28.945c0-3.113 2.515-5.842 6.286-5.842 3.773 0 6.289 2.729 6.289 5.842v5.177c0 3.114-2.516 5.842-6.289 5.842zm20.887-6.856h-6.916c-.244 0-.383.14-.383.384v.63c0 1.225.908 2.52 2.548 2.52 1.538 0 2.166-1.016 2.83-2.135.245-.385.663-.42 1.048-.175l1.641 1.084c.42.28.314.806.21 1.05-.663 1.714-2.619 3.498-5.729 3.498-3.771 0-6.286-2.728-6.286-5.842v-5.177c0-3.113 2.515-5.842 6.286-5.842 3.773 0 6.288 2.729 6.288 5.842v2.624c0 .98-.56 1.539-1.537 1.539zm-82.881-4.163c0-1.224-.908-2.519-2.55-2.519-1.641 0-2.55 1.295-2.55 2.52v5.176c0 1.225.909 2.52 2.55 2.52 1.642 0 2.55-1.295 2.55-2.52zm48.409 0c0-1.224-.91-2.519-2.55-2.519-1.643 0-2.551 1.295-2.551 2.52v5.176c0 1.225.908 2.52 2.55 2.52s2.55-1.295 2.55-2.52v-5.177zm16.136 0c0-1.224-.908-2.519-2.55-2.519-1.641 0-2.55 1.295-2.55 2.52v5.176c0 1.225.909 2.52 2.55 2.52 1.642 0 2.55-1.295 2.55-2.52zm16.136 0c0-1.224-.908-2.519-2.551-2.519-1.64 0-2.548 1.295-2.548 2.52v.629c0 .244.14.385.383.385h4.33c.245 0 .386-.14.386-.385z" fill="#34356c"/><path d="M18.177 24.308c.753.201 1.554.446 2.405.725 1.555.505 2.918 1.087 4.102 1.754 1.2-1.662 3.097-3.858 5.067-5.746C26.208 12.4 17.427.068 13.545.35 10.274.586 8.034 9.744 6.96 17.902c2.54.337 5.095 1.05 6.304 1.775 1.53.92 3.334 2.592 4.912 4.63" fill="#b2d234"/><path d="M36.291 17.08c-1.487-.275-4.074 1.6-6.54 3.961-1.97 1.888-3.866 4.084-5.067 5.746 4.1 2.318 5.96 5.688 5.642 10.696-.019.286-.046.565-.082.844a13.32 13.32 0 01-1.24 4.18c3.523-.087 7.622-2.717 9.005-5.917 1.422-3.288 1.282-18.954-1.718-19.51" fill="#008fd4"/><path d="M13.265 19.677c-1.209-.725-3.765-1.438-6.304-1.775-3.087-.409-6.148-.266-6.737 1.078-.97 2.219 1.331 9.16 4.47 15.126.843-.315 1.846-.57 2.964-.763a29.459 29.459 0 013.435-.362c-.806-2.232-1.232-4.08-1.09-4.925.776-4.615 3.542-4.997 8.174-3.748-1.578-2.04-3.383-3.712-4.912-4.63" fill="#fc9716"/><path d="M16.31 43.162c-2.144-3.011-4.068-6.992-5.217-10.18-1.217.06-2.378.182-3.435.361-1.118.193-2.12.448-2.964.763-2.106.794-3.197 1.958-2.498 3.415 2.03 4.229 8.262 9.554 12.917 9.674.959.029 1.882.012 2.741-.072a11.616 11.616 0 001.866-.327c-1.145-.793-2.307-2.084-3.41-3.634" fill="#faae17"/><path d="M24.684 26.787c-1.184-.667-2.547-1.25-4.103-1.755a45.927 45.927 0 00-2.404-.724c-4.632-1.248-7.398-.867-8.174 3.748-.142.845.284 2.693 1.09 4.925 1.15 3.19 3.073 7.17 5.216 10.18 1.104 1.551 2.266 2.842 3.411 3.635.673.465 1.343.762 1.99.833 2.674.307 5.356-1.595 7.01-4.582.099-.176.192-.355.284-.54a13.335 13.335 0 001.24-4.18c.036-.279.063-.558.082-.844.317-5.008-1.54-8.378-5.642-10.696" fill="#cf2630"/><path d="M21.471 47.055c-.647-.079-1.316-.383-1.986-.854-.58.148-1.21.247-1.879.3 1.267.755 2.558 1.207 3.834 1.254 3.207.126 5.55-1.908 7.13-5.162-1.698 2.946-4.416 4.798-7.099 4.462M18.21 23.85c.752.21 1.553.464 2.402.752 1.557.52 2.92 1.115 4.1 1.793 1.227-1.635 3.157-3.792 5.157-5.64C26.415 12.127 17.75-.228 13.846.003c-3.287.195-5.65 9.259-6.825 17.348 2.546.367 5.103 1.105 6.31 1.84 1.524.932 3.317 2.615 4.878 4.659" fill="#b2d234"/><path d="M36.487 16.904c-1.49-.293-4.112 1.537-6.617 3.85.667 1.674 1.093 3.213 1.168 4.509.258 4.45-.012 8.904-.882 12.661-.21 1.496-.664 2.9-1.297 4.136 3.54-.044 7.689-2.603 9.118-5.76 1.467-3.251 1.516-18.808-1.49-19.396" fill="#008fd4"/><path d="M24.713 26.395c4.09 2.352 5.916 5.724 5.536 10.692-.022.282-.053.56-.093.837.87-3.757 1.14-8.212.882-12.661-.075-1.296-.5-2.836-1.168-4.508-2.001 1.848-3.93 4.005-5.157 5.64" fill="#008f4c"/><path d="M6.195 25.688c.083-2.158.364-5.153.826-8.336-3.095-.447-6.171-.341-6.778.984-1.001 2.191 1.225 9.112 4.304 15.077.851-.303 1.862-.545 2.987-.722-.916-2.536-1.417-4.994-1.339-7.003" fill="#f89c1c"/><path d="M7.534 32.691c1.063-.166 2.23-.27 3.454-.316-.782-2.227-1.189-4.066-1.035-4.905.835-4.57 3.618-4.915 8.256-3.62-1.56-2.044-3.354-3.727-4.878-4.659-1.207-.735-3.764-1.473-6.31-1.84-.462 3.184-.743 6.179-.826 8.337-.078 2.01.423 4.467 1.339 7.003" fill="#bc9d32"/><path d="M13.725 43.2a4.319 4.319 0 01-2.257-.603c-2.185-1.288-4.76-5.003-6.921-9.184-2.122.76-3.233 1.903-2.551 3.36 1.99 4.225 8.183 9.589 12.857 9.769.963.037 1.89.032 2.753-.04-1.34-.802-2.652-1.943-3.88-3.302" fill="#faae17"/><path d="M16.102 42.551c-.82.434-1.621.638-2.377.65 1.23 1.358 2.54 2.5 3.88 3.3.67-.053 1.3-.152 1.88-.3-1.14-.8-2.292-2.098-3.383-3.65" fill="#bc9d32"/><path d="M11.468 42.597a4.32 4.32 0 002.257.603c-2.614-2.898-4.85-6.785-6.191-10.51-1.125.178-2.136.42-2.987.723 2.161 4.18 4.736 7.896 6.921 9.184" fill="#f26f21"/><path d="M7.534 32.691c1.341 3.724 3.578 7.611 6.191 10.51.756-.012 1.557-.216 2.377-.65-2.115-3.018-3.999-6.996-5.114-10.176-1.224.045-2.39.15-3.454.316" fill="#ec1d24"/><path d="M21.646 35.75c.4.491.742 1.03 1.02 1.605-.953-2.64-.72-6.021.928-9.263.227-.438.609-1.024 1.119-1.697-1.18-.678-2.544-1.272-4.1-1.793a47.447 47.447 0 00-2.404-.752c2.715 3.559 4.732 8.209 3.437 11.9" fill="#b96831"/><path d="M28.815 42.06a5.783 5.783 0 01-2.265-.463c-1.6-.673-2.802-1.898-3.55-3.45.342.96.516 2.005.472 3.102-.112 2.96-1.67 4.366-3.988 4.952.67.472 1.34.775 1.987.854 2.683.336 5.4-1.516 7.099-4.462.1-.175.196-.35.29-.533z" fill="#f05a22"/><path d="M15.336 32.478c2.566.209 4.826 1.432 6.31 3.272 1.296-3.691-.723-8.341-3.437-11.9-4.639-1.295-7.42-.95-8.256 3.62-.154.839.253 2.678 1.035 4.905a37.321 37.321 0 014.348.103" fill="#c1422e"/><path d="M21.646 35.75a6.346 6.346 0 01-.39.895c-1.66 3.137-3.45 5.007-5.154 5.907 1.09 1.551 2.243 2.848 3.382 3.649 2.317-.586 3.876-1.992 3.988-4.952a8.22 8.22 0 00-.473-3.102 7.445 7.445 0 01-.332-.792 8.252 8.252 0 00-1.02-1.605" fill="#ee4123"/><path d="M24.713 26.395c-.51.672-.892 1.259-1.118 1.697-1.65 3.242-1.882 6.624-.929 9.263.098.27.207.537.333.792.749 1.552 1.95 2.777 3.551 3.45a5.78 5.78 0 002.264.463h.045a13.093 13.093 0 001.297-4.136c.04-.276.07-.555.093-.837.38-4.968-1.446-8.34-5.536-10.692" fill="#284e3e"/><path d="M21.256 36.645c.157-.291.283-.591.39-.895-1.484-1.84-3.744-3.063-6.31-3.272a37.22 37.22 0 00-4.349-.103c1.116 3.18 3 7.158 5.115 10.176 1.703-.899 3.494-2.77 5.154-5.906" fill="#b7292f"/></g></svg>